<svg id="visual" viewBox="0 0 1000 300" width="1000" height="300" xmlns="http://www.w3.org/2000/svg" xmlns:xlink="http://www.w3.org/1999/xlink" version="1.1"><rect x="0" y="0" width="1000" height="300" fill="#FA9039"></rect><path d="M0 154L13.8 156.5C27.7 159 55.3 164 83.2 171.5C111 179 139 189 166.8 183.5C194.7 178 222.3 157 250 146.7C277.7 136.3 305.3 136.7 333.2 150.8C361 165 389 193 416.8 196.2C444.7 199.3 472.3 177.7 500 166.3C527.7 155 555.3 154 583.2 151.8C611 149.7 639 146.3 666.8 151.3C694.7 156.3 722.3 169.7 750 182C777.7 194.3 805.3 205.7 833.2 205.7C861 205.7 889 194.3 916.8 181C944.7 167.7 972.3 152.3 986.2 144.7L1000 137L1000 0L986.2 0C972.3 0 944.7 0 916.8 0C889 0 861 0 833.2 0C805.3 0 777.7 0 750 0C722.3 0 694.7 0 666.8 0C639 0 611 0 583.2 0C555.3 0 527.7 0 500 0C472.3 0 444.7 0 416.8 0C389 0 361 0 333.2 0C305.3 0 277.7 0 250 0C222.3 0 194.7 0 166.8 0C139 0 111 0 83.2 0C55.3 0 27.7 0 13.8 0L0 0Z" fill="#f67362"></path><path d="M0 119L13.8 130.2C27.7 141.3 55.3 163.7 83.2 162.5C111 161.3 139 136.7 166.8 128.8C194.7 121 222.3 130 250 129C277.7 128 305.3 117 333.2 120.7C361 124.3 389 142.7 416.8 154C444.7 165.3 472.3 169.7 500 171C527.7 172.3 555.3 170.7 583.2 159.5C611 148.3 639 127.7 666.8 119.3C694.7 111 722.3 115 750 125.2C777.7 135.3 805.3 151.7 833.2 152.5C861 153.3 889 138.7 916.8 133.7C944.7 128.7 972.3 133.3 986.2 135.7L1000 138L1000 0L986.2 0C972.3 0 944.7 0 916.8 0C889 0 861 0 833.2 0C805.3 0 777.7 0 750 0C722.3 0 694.7 0 666.8 0C639 0 611 0 583.2 0C555.3 0 527.7 0 500 0C472.3 0 444.7 0 416.8 0C389 0 361 0 333.2 0C305.3 0 277.7 0 250 0C222.3 0 194.7 0 166.8 0C139 0 111 0 83.2 0C55.3 0 27.7 0 13.8 0L0 0Z" fill="#d36398"></path><path d="M0 82L13.8 87.2C27.7 92.3 55.3 102.7 83.2 109.5C111 116.3 139 119.7 166.8 121.3C194.7 123 222.3 123 250 123.2C277.7 123.3 305.3 123.7 333.2 124.8C361 126 389 128 416.8 132C444.7 136 472.3 142 500 138.8C527.7 135.7 555.3 123.3 583.2 112.2C611 101 639 91 666.8 95C694.7 99 722.3 117 750 122C777.7 127 805.3 119 833.2 118.7C861 118.3 889 125.7 916.8 121.2C944.7 116.7 972.3 100.3 986.2 92.2L1000 84L1000 0L986.2 0C972.3 0 944.7 0 916.8 0C889 0 861 0 833.2 0C805.3 0 777.7 0 750 0C722.3 0 694.7 0 666.8 0C639 0 611 0 583.2 0C555.3 0 527.7 0 500 0C472.3 0 444.7 0 416.8 0C389 0 361 0 333.2 0C305.3 0 277.7 0 250 0C222.3 0 194.7 0 166.8 0C139 0 111 0 83.2 0C55.3 0 27.7 0 13.8 0L0 0Z" fill="#886bb0"></path><path d="M0 102L13.8 99.8C27.7 97.7 55.3 93.3 83.2 87.3C111 81.3 139 73.7 166.8 68.8C194.7 64 222.3 62 250 65.3C277.7 68.7 305.3 77.3 333.2 83C361 88.7 389 91.3 416.8 94C444.7 96.7 472.3 99.3 500 99.5C527.7 99.7 555.3 97.3 583.2 92C611 86.7 639 78.3 666.8 72.7C694.7 67 722.3 64 750 63C777.7 62 805.3 63 833.2 68.2C861 73.3 889 82.7 916.8 82.7C944.7 82.7 972.3 73.3 986.2 68.7L1000 64L1000 0L986.2 0C972.3 0 944.7 0 916.8 0C889 0 861 0 833.2 0C805.3 0 777.7 0 750 0C722.3 0 694.7 0 666.8 0C639 0 611 0 583.2 0C555.3 0 527.7 0 500 0C472.3 0 444.7 0 416.8 0C389 0 361 0 333.2 0C305.3 0 277.7 0 250 0C222.3 0 194.7 0 166.8 0C139 0 111 0 83.2 0C55.3 0 27.7 0 13.8 0L0 0Z" fill="#316c9d"></path><path d="M0 38L13.8 38.2C27.7 38.3 55.3 38.7 83.2 41.2C111 43.7 139 48.3 166.8 51C194.7 53.7 222.3 54.3 250 51.3C277.7 48.3 305.3 41.7 333.2 41C361 40.3 389 45.7 416.8 48.5C444.7 51.3 472.3 51.7 500 51.8C527.7 52 555.3 52 583.2 50.8C611 49.7 639 47.3 666.8 49.5C694.7 51.7 722.3 58.3 750 61.5C777.7 64.7 805.3 64.3 833.2 59C861 53.7 889 43.3 916.8 42.2C944.7 41 972.3 49 986.2 53L1000 57L1000 0L986.2 0C972.3 0 944.7 0 916.8 0C889 0 861 0 833.2 0C805.3 0 777.7 0 750 0C722.3 0 694.7 0 666.8 0C639 0 611 0 583.2 0C555.3 0 527.7 0 500 0C472.3 0 444.7 0 416.8 0C389 0 361 0 333.2 0C305.3 0 277.7 0 250 0C222.3 0 194.7 0 166.8 0C139 0 111 0 83.2 0C55.3 0 27.7 0 13.8 0L0 0Z" fill="#086070"></path></svg>