<svg id="visual" viewBox="0 0 960 300" width="960" height="300" xmlns="http://www.w3.org/2000/svg" xmlns:xlink="http://www.w3.org/1999/xlink" version="1.1"><rect x="0" y="0" width="960" height="300" fill="#FA9039"></rect><path d="M0 196L22.8 194.7C45.7 193.3 91.3 190.7 137 191.8C182.7 193 228.3 198 274 206.8C319.7 215.7 365.3 228.3 411.2 235.5C457 242.7 503 244.3 548.8 235.8C594.7 227.3 640.3 208.7 686 200.7C731.7 192.7 777.3 195.3 823 191.7C868.7 188 914.3 178 937.2 173L960 168L960 0L937.2 0C914.3 0 868.7 0 823 0C777.3 0 731.7 0 686 0C640.3 0 594.7 0 548.8 0C503 0 457 0 411.2 0C365.3 0 319.7 0 274 0C228.3 0 182.7 0 137 0C91.3 0 45.7 0 22.8 0L0 0Z" fill="#fa7268"></path><path d="M0 188L22.8 179C45.7 170 91.3 152 137 142.5C182.7 133 228.3 132 274 136.2C319.7 140.3 365.3 149.7 411.2 161.5C457 173.3 503 187.7 548.8 181.5C594.7 175.3 640.3 148.7 686 136.8C731.7 125 777.3 128 823 130.2C868.7 132.3 914.3 133.7 937.2 134.3L960 135L960 0L937.2 0C914.3 0 868.7 0 823 0C777.3 0 731.7 0 686 0C640.3 0 594.7 0 548.8 0C503 0 457 0 411.2 0C365.3 0 319.7 0 274 0C228.3 0 182.7 0 137 0C91.3 0 45.7 0 22.8 0L0 0Z" fill="#d3649d"></path><path d="M0 139L22.8 140C45.7 141 91.3 143 137 135.7C182.7 128.3 228.3 111.7 274 112.8C319.7 114 365.3 133 411.2 138.8C457 144.7 503 137.3 548.8 137.3C594.7 137.3 640.3 144.7 686 140C731.7 135.3 777.3 118.7 823 114.7C868.7 110.7 914.3 119.3 937.2 123.7L960 128L960 0L937.2 0C914.3 0 868.7 0 823 0C777.3 0 731.7 0 686 0C640.3 0 594.7 0 548.8 0C503 0 457 0 411.2 0C365.3 0 319.7 0 274 0C228.3 0 182.7 0 137 0C91.3 0 45.7 0 22.8 0L0 0Z" fill="#866cb2"></path><path d="M0 66L22.8 72.3C45.7 78.7 91.3 91.3 137 97.7C182.7 104 228.3 104 274 96.5C319.7 89 365.3 74 411.2 69.2C457 64.3 503 69.7 548.8 78C594.7 86.3 640.3 97.7 686 96C731.7 94.3 777.3 79.7 823 79.7C868.7 79.7 914.3 94.3 937.2 101.7L960 109L960 0L937.2 0C914.3 0 868.7 0 823 0C777.3 0 731.7 0 686 0C640.3 0 594.7 0 548.8 0C503 0 457 0 411.2 0C365.3 0 319.7 0 274 0C228.3 0 182.7 0 137 0C91.3 0 45.7 0 22.8 0L0 0Z" fill="#2f6c9d"></path><path d="M0 32L22.8 32.8C45.7 33.7 91.3 35.3 137 39.2C182.7 43 228.3 49 274 51.7C319.7 54.3 365.3 53.7 411.2 50.7C457 47.7 503 42.3 548.8 43.8C594.7 45.3 640.3 53.7 686 58C731.7 62.3 777.3 62.7 823 59.7C868.7 56.7 914.3 50.3 937.2 47.2L960 44L960 0L937.2 0C914.3 0 868.7 0 823 0C777.3 0 731.7 0 686 0C640.3 0 594.7 0 548.8 0C503 0 457 0 411.2 0C365.3 0 319.7 0 274 0C228.3 0 182.7 0 137 0C91.3 0 45.7 0 22.8 0L0 0Z" fill="#086070"></path></svg>