<svg id="visual" viewBox="0 0 960 300" width="960" height="300" xmlns="http://www.w3.org/2000/svg" xmlns:xlink="http://www.w3.org/1999/xlink" version="1.1"><rect x="0" y="0" width="960" height="300" fill="#ffffff"></rect><path d="M0 202L22.8 201.3C45.7 200.7 91.3 199.3 137 198.8C182.7 198.3 228.3 198.7 274 206C319.7 213.3 365.3 227.7 411.2 232.2C457 236.7 503 231.3 548.8 230.8C594.7 230.3 640.3 234.7 686 229C731.7 223.3 777.3 207.7 823 208.2C868.7 208.7 914.3 225.3 937.2 233.7L960 242L960 0L937.2 0C914.3 0 868.7 0 823 0C777.3 0 731.7 0 686 0C640.3 0 594.7 0 548.8 0C503 0 457 0 411.2 0C365.3 0 319.7 0 274 0C228.3 0 182.7 0 137 0C91.3 0 45.7 0 22.8 0L0 0Z" fill="#f67362"></path><path d="M0 204L22.8 197.3C45.7 190.7 91.3 177.3 137 175.2C182.7 173 228.3 182 274 187.2C319.7 192.3 365.3 193.7 411.2 196C457 198.3 503 201.7 548.8 201.2C594.7 200.7 640.3 196.3 686 187C731.7 177.7 777.3 163.3 823 156.2C868.7 149 914.3 149 937.2 149L960 149L960 0L937.2 0C914.3 0 868.7 0 823 0C777.3 0 731.7 0 686 0C640.3 0 594.7 0 548.8 0C503 0 457 0 411.2 0C365.3 0 319.7 0 274 0C228.3 0 182.7 0 137 0C91.3 0 45.7 0 22.8 0L0 0Z" fill="#de638f"></path><path d="M0 139L22.8 142.2C45.7 145.3 91.3 151.7 137 149.3C182.7 147 228.3 136 274 133.8C319.7 131.7 365.3 138.3 411.2 145.3C457 152.3 503 159.7 548.8 159.7C594.7 159.7 640.3 152.3 686 150.7C731.7 149 777.3 153 823 154.2C868.7 155.3 914.3 153.7 937.2 152.8L960 152L960 0L937.2 0C914.3 0 868.7 0 823 0C777.3 0 731.7 0 686 0C640.3 0 594.7 0 548.8 0C503 0 457 0 411.2 0C365.3 0 319.7 0 274 0C228.3 0 182.7 0 137 0C91.3 0 45.7 0 22.8 0L0 0Z" fill="#a968ab"></path><path d="M0 131L22.8 128.3C45.7 125.7 91.3 120.3 137 117.2C182.7 114 228.3 113 274 112.5C319.7 112 365.3 112 411.2 107.8C457 103.7 503 95.3 548.8 97C594.7 98.7 640.3 110.3 686 111.2C731.7 112 777.3 102 823 103.8C868.7 105.7 914.3 119.3 937.2 126.2L960 133L960 0L937.2 0C914.3 0 868.7 0 823 0C777.3 0 731.7 0 686 0C640.3 0 594.7 0 548.8 0C503 0 457 0 411.2 0C365.3 0 319.7 0 274 0C228.3 0 182.7 0 137 0C91.3 0 45.7 0 22.8 0L0 0Z" fill="#656dad"></path><path d="M0 96L22.8 90.8C45.7 85.7 91.3 75.3 137 68.8C182.7 62.3 228.3 59.7 274 63.3C319.7 67 365.3 77 411.2 78.7C457 80.3 503 73.7 548.8 72.2C594.7 70.7 640.3 74.3 686 73.8C731.7 73.3 777.3 68.7 823 68.5C868.7 68.3 914.3 72.7 937.2 74.8L960 77L960 0L937.2 0C914.3 0 868.7 0 823 0C777.3 0 731.7 0 686 0C640.3 0 594.7 0 548.8 0C503 0 457 0 411.2 0C365.3 0 319.7 0 274 0C228.3 0 182.7 0 137 0C91.3 0 45.7 0 22.8 0L0 0Z" fill="#206a95"></path><path d="M0 40L22.8 41.2C45.7 42.3 91.3 44.7 137 45.5C182.7 46.3 228.3 45.7 274 44.3C319.7 43 365.3 41 411.2 40.8C457 40.7 503 42.3 548.8 45.7C594.7 49 640.3 54 686 52C731.7 50 777.3 41 823 40.8C868.7 40.7 914.3 49.3 937.2 53.7L960 58L960 0L937.2 0C914.3 0 868.7 0 823 0C777.3 0 731.7 0 686 0C640.3 0 594.7 0 548.8 0C503 0 457 0 411.2 0C365.3 0 319.7 0 274 0C228.3 0 182.7 0 137 0C91.3 0 45.7 0 22.8 0L0 0Z" fill="#086070"></path></svg>