<svg id="visual" viewBox="0 0 1000 300" width="1000" height="300" xmlns="http://www.w3.org/2000/svg" xmlns:xlink="http://www.w3.org/1999/xlink" version="1.1"><rect x="0" y="0" width="1000" height="300" fill="#F67362"></rect><path d="M0 132L13.8 136.5C27.7 141 55.3 150 83.2 160.2C111 170.3 139 181.7 166.8 183.7C194.7 185.7 222.3 178.3 250 170.7C277.7 163 305.3 155 333.2 160.3C361 165.7 389 184.3 416.8 185.8C444.7 187.3 472.3 171.7 500 160.2C527.7 148.7 555.3 141.3 583.2 148C611 154.7 639 175.3 666.8 188.8C694.7 202.3 722.3 208.7 750 198.2C777.7 187.7 805.3 160.3 833.2 155.2C861 150 889 167 916.8 169.8C944.7 172.7 972.3 161.3 986.2 155.7L1000 150L1000 0L986.2 0C972.3 0 944.7 0 916.8 0C889 0 861 0 833.2 0C805.3 0 777.7 0 750 0C722.3 0 694.7 0 666.8 0C639 0 611 0 583.2 0C555.3 0 527.7 0 500 0C472.3 0 444.7 0 416.8 0C389 0 361 0 333.2 0C305.3 0 277.7 0 250 0C222.3 0 194.7 0 166.8 0C139 0 111 0 83.2 0C55.3 0 27.7 0 13.8 0L0 0Z" fill="#ffffff"></path><path d="M0 119L13.8 125.5C27.7 132 55.3 145 83.2 155.8C111 166.7 139 175.3 166.8 167C194.7 158.7 222.3 133.3 250 125.7C277.7 118 305.3 128 333.2 139.5C361 151 389 164 416.8 159C444.7 154 472.3 131 500 119.3C527.7 107.7 555.3 107.3 583.2 113.7C611 120 639 133 666.8 136.2C694.7 139.3 722.3 132.7 750 127C777.7 121.3 805.3 116.7 833.2 121.7C861 126.7 889 141.3 916.8 152.8C944.7 164.3 972.3 172.7 986.2 176.8L1000 181L1000 0L986.2 0C972.3 0 944.7 0 916.8 0C889 0 861 0 833.2 0C805.3 0 777.7 0 750 0C722.3 0 694.7 0 666.8 0C639 0 611 0 583.2 0C555.3 0 527.7 0 500 0C472.3 0 444.7 0 416.8 0C389 0 361 0 333.2 0C305.3 0 277.7 0 250 0C222.3 0 194.7 0 166.8 0C139 0 111 0 83.2 0C55.3 0 27.7 0 13.8 0L0 0Z" fill="#c6d5d9"></path><path d="M0 105L13.8 108.8C27.7 112.7 55.3 120.3 83.2 120.7C111 121 139 114 166.8 112C194.7 110 222.3 113 250 110.3C277.7 107.7 305.3 99.3 333.2 99.3C361 99.3 389 107.7 416.8 111.7C444.7 115.7 472.3 115.3 500 120.3C527.7 125.3 555.3 135.7 583.2 130.5C611 125.3 639 104.7 666.8 102.7C694.7 100.7 722.3 117.3 750 120.7C777.7 124 805.3 114 833.2 107C861 100 889 96 916.8 100C944.7 104 972.3 116 986.2 122L1000 128L1000 0L986.2 0C972.3 0 944.7 0 916.8 0C889 0 861 0 833.2 0C805.3 0 777.7 0 750 0C722.3 0 694.7 0 666.8 0C639 0 611 0 583.2 0C555.3 0 527.7 0 500 0C472.3 0 444.7 0 416.8 0C389 0 361 0 333.2 0C305.3 0 277.7 0 250 0C222.3 0 194.7 0 166.8 0C139 0 111 0 83.2 0C55.3 0 27.7 0 13.8 0L0 0Z" fill="#8eacb5"></path><path d="M0 80L13.8 79.7C27.7 79.3 55.3 78.7 83.2 75.2C111 71.7 139 65.3 166.8 63.3C194.7 61.3 222.3 63.7 250 65.3C277.7 67 305.3 68 333.2 70.2C361 72.3 389 75.7 416.8 81.3C444.7 87 472.3 95 500 95.2C527.7 95.3 555.3 87.7 583.2 81C611 74.3 639 68.7 666.8 72.2C694.7 75.7 722.3 88.3 750 91C777.7 93.7 805.3 86.3 833.2 80.7C861 75 889 71 916.8 69.3C944.7 67.7 972.3 68.3 986.2 68.7L1000 69L1000 0L986.2 0C972.3 0 944.7 0 916.8 0C889 0 861 0 833.2 0C805.3 0 777.7 0 750 0C722.3 0 694.7 0 666.8 0C639 0 611 0 583.2 0C555.3 0 527.7 0 500 0C472.3 0 444.7 0 416.8 0C389 0 361 0 333.2 0C305.3 0 277.7 0 250 0C222.3 0 194.7 0 166.8 0C139 0 111 0 83.2 0C55.3 0 27.7 0 13.8 0L0 0Z" fill="#558592"></path><path d="M0 66L13.8 60.3C27.7 54.7 55.3 43.3 83.2 42.3C111 41.3 139 50.7 166.8 55.3C194.7 60 222.3 60 250 59.7C277.7 59.3 305.3 58.7 333.2 59.8C361 61 389 64 416.8 61.3C444.7 58.7 472.3 50.3 500 49.8C527.7 49.3 555.3 56.7 583.2 57.5C611 58.3 639 52.7 666.8 52.3C694.7 52 722.3 57 750 54C777.7 51 805.3 40 833.2 35.3C861 30.7 889 32.3 916.8 33.3C944.7 34.3 972.3 34.7 986.2 34.8L1000 35L1000 0L986.2 0C972.3 0 944.7 0 916.8 0C889 0 861 0 833.2 0C805.3 0 777.7 0 750 0C722.3 0 694.7 0 666.8 0C639 0 611 0 583.2 0C555.3 0 527.7 0 500 0C472.3 0 444.7 0 416.8 0C389 0 361 0 333.2 0C305.3 0 277.7 0 250 0C222.3 0 194.7 0 166.8 0C139 0 111 0 83.2 0C55.3 0 27.7 0 13.8 0L0 0Z" fill="#086070"></path></svg>